<svg xmlns="http://www.w3.org/2000/svg" xmlns:xlink="http://www.w3.org/1999/xlink" viewBox="0 0 297.7 62.42"><defs><style>.cls-1{fill:url(#linear-gradient);}.cls-2{fill:url(#linear-gradient-2);}.cls-3{fill:url(#linear-gradient-3);}.cls-4{fill:url(#linear-gradient-4);}.cls-5{fill:url(#linear-gradient-5);}.cls-6{fill:url(#linear-gradient-6);}.cls-7{font-size:30.76px;letter-spacing:-0.02em;}.cls-7,.cls-9{font-family:SimplifiedArabic-Bold, Simplified Arabic;font-weight:700;}.cls-8{letter-spacing:-0.1em;}.cls-9{font-size:15.49px;fill:#333;letter-spacing:0.07em;}</style><linearGradient id="linear-gradient" y1="17.26" x2="29.09" y2="17.26" gradientUnits="userSpaceOnUse"><stop offset="0" stop-color="#fc0"/><stop offset="0.23" stop-color="#fdc01a"/><stop offset="0.47" stop-color="#fcb72c"/><stop offset="0.73" stop-color="#fbb237"/><stop offset="1" stop-color="#fbb03b"/></linearGradient><linearGradient id="linear-gradient-2" x1="32.2" y1="17.26" x2="64.57" y2="17.26" xlink:href="#linear-gradient"/><linearGradient id="linear-gradient-3" x1="68.56" y1="17.26" x2="98.56" y2="17.26" xlink:href="#linear-gradient"/><linearGradient id="linear-gradient-4" x1="98.53" y1="17.26" x2="125.04" y2="17.26" xlink:href="#linear-gradient"/><linearGradient id="linear-gradient-5" x1="128.1" y1="17.26" x2="153.49" y2="17.26" xlink:href="#linear-gradient"/><linearGradient id="linear-gradient-6" x1="154.5" y1="17.26" x2="185.54" y2="17.26" xlink:href="#linear-gradient"/></defs><g id="Layer_2" data-name="Layer 2"><g id="Layer_1-2" data-name="Layer 1"><path class="cls-1" d="M22.54,21.68l6.55,2.07q-3,10.79-13.89,10.78a13.9,13.9,0,0,1-11.3-5Q0,24.89,0,17.55,0,9.81,3.87,5.08,8,0,15.63,0a13.91,13.91,0,0,1,9.94,3.62A13.21,13.21,0,0,1,29,9.76l-6.68,1.6a7,7,0,0,0-2.47-4.1,7.12,7.12,0,0,0-4.56-1.49Q7,5.77,7,17.05q0,11.72,8.19,11.71Q20.93,28.76,22.54,21.68Z"/><path class="cls-2" d="M32.2,17.45q0-8.34,4.62-13.12Q41,0,48.33,0,56.07,0,60.4,4.83q4.17,4.65,4.17,12.47T60.42,29.7q-4.32,4.83-12,4.83t-12-4.73Q32.21,25.23,32.2,17.45Zm6.95-.22a13.78,13.78,0,0,0,2.13,8,8.12,8.12,0,0,0,7.13,3.54,8.06,8.06,0,0,0,7.13-3.59,14.13,14.13,0,0,0,2.05-8,13.76,13.76,0,0,0-2.05-8,8.08,8.08,0,0,0-7.13-3.41,8.15,8.15,0,0,0-7.18,3.46A13.74,13.74,0,0,0,39.15,17.23Z"/><path class="cls-3" d="M68.56,34V.58H82.75a29.48,29.48,0,0,1,6.48.51,8.06,8.06,0,0,1,5.16,3.59,9.55,9.55,0,0,1,1.47,5.26q0,8-8.81,9.28a15.82,15.82,0,0,1,4.28,3.57,44.8,44.8,0,0,1,3.16,4.66L98.56,34h-8l-4.88-7.26-2.4-3.55a7.66,7.66,0,0,0-3.19-2.75A10.75,10.75,0,0,0,76.66,20H75.29V34ZM75.29,14.7h5c2.47,0,3.9,0,4.27-.08,1.8-.2,3-.78,3.69-1.74a4.36,4.36,0,0,0,.69-2.51,3.69,3.69,0,0,0-3.44-4c-.49-.06-2.14-.1-4.94-.1H75.29Z"/><path class="cls-4" d="M108.42,34V6.22H98.53V.58H125V6.22h-9.89V34Z"/><path class="cls-5" d="M128.1,34V.58h24.74V6.22h-18v7.39H151.6v5.64H134.83v9.08h18.66V34Z"/><path class="cls-6" d="M154.5,34l11.41-17.41L155.56.58h7.9l6.67,10.73L176.69.58h7.81L174.13,16.77,185.54,34h-8.15L170,22.41,162.57,34Z"/><text class="cls-7" transform="translate(192.6 30.14)">AI<tspan class="cls-8" x="26.14" y="0"> </tspan><tspan x="32.83" y="0">TECH</tspan></text><text class="cls-9" transform="translate(50.66 54.73) scale(0.95 1)">VIBE - VIEW - VISUAL</text></g></g></svg>